<svg width="126" height="105" viewBox="0 0 126 105" fill="none" xmlns="http://www.w3.org/2000/svg">
<rect x="13.811" y="4" width="98.4906" height="67.6981" rx="12" fill="#3A36DB" stroke="white" stroke-width="8"/>
<path d="M66.9463 34.6465L104.782 62.8901C109.408 66.3435 106.965 73.6982 101.192 73.6982H24.6992C18.895 73.6982 16.473 66.2776 21.1596 62.8535L59.8175 34.6098C61.9442 33.056 64.8356 33.0709 66.9463 34.6465Z" fill="#3A36DB" stroke="white" stroke-width="4"/>
<path d="M59.1701 41.618L18.8143 12.3297C14.8932 9.48391 16.9062 3.28306 21.7512 3.28306L103.34 3.28306C108.211 3.28306 110.206 9.53866 106.235 12.3594L65.0024 41.6477C63.2532 42.8901 60.9065 42.8781 59.1701 41.618Z" fill="#3A36DB" stroke="white" stroke-width="4"/>
<path d="M34.552 97.2C31.152 97.2 29.352 94.62 29.352 94.62L30.852 93.2C30.852 93.2 31.952 95.2 34.652 95.2C36.452 95.2 37.452 94.2 37.452 93.1C37.452 89.8 29.952 91.6 29.952 86.6C29.952 84.5 31.652 82.8 34.552 82.8C37.552 82.8 39.152 85 39.152 85L37.752 86.5C37.752 86.5 36.752 84.8 34.652 84.8C33.052 84.8 32.252 85.6 32.252 86.5C32.252 89.6 39.752 87.8 39.752 93C39.752 95.3 37.852 97.2 34.552 97.2ZM42.3465 97V83H44.5465V97H42.3465ZM52.052 97.2C48.652 97.2 46.852 94.62 46.852 94.62L48.352 93.2C48.352 93.2 49.452 95.2 52.152 95.2C53.952 95.2 54.952 94.2 54.952 93.1C54.952 89.8 47.452 91.6 47.452 86.6C47.452 84.5 49.152 82.8 52.052 82.8C55.052 82.8 56.652 85 56.652 85L55.252 86.5C55.252 86.5 54.252 84.8 52.152 84.8C50.552 84.8 49.752 85.6 49.752 86.5C49.752 89.6 57.252 87.8 57.252 93C57.252 95.3 55.352 97.2 52.052 97.2ZM59.8465 97V83H61.9465L65.5465 89.7H65.6465L69.2465 83H71.3465V97H69.1465V87.4H69.0465L66.3465 92.6H64.8465L62.1465 87.4H62.0465V97H59.8465ZM73.4488 97L78.2488 83H80.1488L84.9488 97H82.6488L81.6488 94H76.7488L75.7488 97H73.4488ZM77.4488 92H80.9488L79.2488 86.9H79.1488L77.4488 92ZM91.1535 97.2C87.7535 97.2 85.9535 94.62 85.9535 94.62L87.4535 93.2C87.4535 93.2 88.5535 95.2 91.2535 95.2C93.0535 95.2 94.0535 94.2 94.0535 93.1C94.0535 89.8 86.5535 91.6 86.5535 86.6C86.5535 84.5 88.2535 82.8 91.1535 82.8C94.1535 82.8 95.7535 85 95.7535 85L94.3535 86.5C94.3535 86.5 93.3535 84.8 91.2535 84.8C89.6535 84.8 88.8535 85.6 88.8535 86.5C88.8535 89.6 96.3535 87.8 96.3535 93C96.3535 95.3 94.4535 97.2 91.1535 97.2Z" fill="#4761DF"/>
<path opacity="0.8" d="M29.6131 103.05C28.7631 103.05 28.3131 102.405 28.3131 102.405L28.6881 102.05C28.6881 102.05 28.9631 102.55 29.6381 102.55C30.0881 102.55 30.3381 102.3 30.3381 102.025C30.3381 101.2 28.4631 101.65 28.4631 100.4C28.4631 99.875 28.8881 99.45 29.6131 99.45C30.3631 99.45 30.7631 100 30.7631 100L30.4131 100.375C30.4131 100.375 30.1631 99.95 29.6381 99.95C29.2381 99.95 29.0381 100.15 29.0381 100.375C29.0381 101.15 30.9131 100.7 30.9131 102C30.9131 102.575 30.4381 103.05 29.6131 103.05ZM32.4139 103V100.6H32.9389V103H32.4139ZM32.4139 99.9V99.4H32.9389V99.9H32.4139ZM35.2678 103.05C34.6428 103.05 34.3428 102.525 34.3428 102.525L34.7178 102.25C34.7178 102.25 34.8428 102.6 35.2428 102.6C35.4678 102.6 35.5928 102.475 35.5928 102.325C35.5928 101.9 34.4428 102.1 34.4428 101.25C34.4428 100.875 34.7678 100.55 35.2428 100.55C35.7678 100.55 36.0678 101 36.0678 101L35.7428 101.3C35.7428 101.3 35.5678 101 35.2678 101C35.0928 101 34.9928 101.1 34.9928 101.225C34.9928 101.65 36.1428 101.45 36.1428 102.3C36.1428 102.7 35.7928 103.05 35.2678 103.05ZM38.2695 103C37.9445 103 37.6945 102.75 37.6945 102.4V101.05H37.3945V100.6H37.6945V100.05L38.2195 99.75V100.6H38.5695V101.05H38.2195V102.4C38.2195 102.5 38.2695 102.55 38.3695 102.55H38.5945L38.5195 103H38.2695ZM41.0445 103.05C40.4695 103.05 39.9695 102.55 39.9695 101.8C39.9695 101.05 40.4695 100.55 41.0195 100.55C41.5695 100.55 42.0695 101.05 42.0695 101.8V101.9H40.5195C40.5445 102.325 40.8195 102.6 41.0945 102.6C41.4445 102.6 41.5945 102.25 41.5945 102.25L41.9695 102.525C41.9695 102.525 41.6695 103.05 41.0445 103.05ZM40.5445 101.5H41.4945C41.4195 101.175 41.2445 101 41.0195 101C40.7945 101 40.6195 101.175 40.5445 101.5ZM43.5467 103V100.6H44.0717V100.775H44.1017C44.1017 100.775 44.2967 100.55 44.6467 100.55C45.0717 100.55 45.2217 100.85 45.2217 100.85H45.2617C45.2617 100.85 45.4717 100.55 45.8967 100.55C46.2967 100.55 46.5717 100.825 46.5717 101.25V103H46.0467V101.35C46.0467 101.1 45.9467 101 45.7467 101C45.4467 101 45.3217 101.25 45.3217 101.25V103H44.7967V101.35C44.7967 101.1 44.6967 101 44.4967 101C44.1967 101 44.0717 101.25 44.0717 101.25V103H43.5467ZM50.1799 103V99.5H50.7049L51.6049 101.175H51.6299L52.5299 99.5H53.0549V103H52.5049V100.6H52.4799L51.8049 101.9H51.4299L50.7549 100.6H50.7299V103H50.1799ZM55.5576 103.05C55.0826 103.05 54.6326 102.6 54.6326 101.8C54.6326 101 55.0826 100.55 55.5576 100.55C55.8826 100.55 56.0826 100.775 56.0826 100.775H56.1076V100.6H56.6326V102.31C56.6326 102.65 56.7076 103 56.7076 103H56.1826L56.1326 102.8H56.1076C56.1076 102.8 55.9076 103.05 55.5576 103.05ZM55.7076 102.6C55.9576 102.6 56.1076 102.35 56.1076 102.35V101.25C56.1076 101.25 55.9826 101 55.7076 101C55.4576 101 55.1826 101.275 55.1826 101.8C55.1826 102.325 55.4576 102.6 55.7076 102.6ZM58.2098 103V100.6H58.7348V100.775H58.7598C58.7598 100.775 58.9598 100.55 59.3348 100.55C59.7598 100.55 60.0598 100.85 60.0598 101.3V103H59.5348V101.4C59.5348 101.125 59.4098 101 59.1848 101C58.8598 101 58.7348 101.25 58.7348 101.25V103H58.2098ZM62.4619 103.05C61.9869 103.05 61.5369 102.6 61.5369 101.8C61.5369 101 61.9869 100.55 62.4619 100.55C62.7869 100.55 62.9869 100.775 62.9869 100.775H63.0119V100.6H63.5369V102.31C63.5369 102.65 63.6119 103 63.6119 103H63.0869L63.0369 102.8H63.0119C63.0119 102.8 62.8119 103.05 62.4619 103.05ZM62.6119 102.6C62.8619 102.6 63.0119 102.35 63.0119 102.35V101.25C63.0119 101.25 62.8869 101 62.6119 101C62.3619 101 62.0869 101.275 62.0869 101.8C62.0869 102.325 62.3619 102.6 62.6119 102.6ZM64.8891 103.65L64.8141 103.2H64.9641C65.0641 103.2 65.1141 103.15 65.1141 103.05V100.6H65.6391V103.05C65.6391 103.4 65.3891 103.65 65.0641 103.65H64.8891ZM65.1141 99.9V99.4H65.6391V99.9H65.1141ZM68.193 103.05C67.618 103.05 67.118 102.55 67.118 101.8C67.118 101.05 67.618 100.55 68.168 100.55C68.718 100.55 69.218 101.05 69.218 101.8V101.9H67.668C67.693 102.325 67.968 102.6 68.243 102.6C68.593 102.6 68.743 102.25 68.743 102.25L69.118 102.525C69.118 102.525 68.818 103.05 68.193 103.05ZM67.693 101.5H68.643C68.568 101.175 68.393 101 68.168 101C67.943 101 67.768 101.175 67.693 101.5ZM70.6951 103V100.6H71.2201V100.775H71.2501C71.2501 100.775 71.4451 100.55 71.7951 100.55C72.2201 100.55 72.3701 100.85 72.3701 100.85H72.4101C72.4101 100.85 72.6201 100.55 73.0451 100.55C73.4451 100.55 73.7201 100.825 73.7201 101.25V103H73.1951V101.35C73.1951 101.1 73.0951 101 72.8951 101C72.5951 101 72.4701 101.25 72.4701 101.25V103H71.9451V101.35C71.9451 101.1 71.8451 101 71.6451 101C71.3451 101 71.2201 101.25 71.2201 101.25V103H70.6951ZM76.274 103.05C75.699 103.05 75.199 102.55 75.199 101.8C75.199 101.05 75.699 100.55 76.249 100.55C76.799 100.55 77.299 101.05 77.299 101.8V101.9H75.749C75.774 102.325 76.049 102.6 76.324 102.6C76.674 102.6 76.824 102.25 76.824 102.25L77.199 102.525C77.199 102.525 76.899 103.05 76.274 103.05ZM75.774 101.5H76.724C76.649 101.175 76.474 101 76.249 101C76.024 101 75.849 101.175 75.774 101.5ZM78.7762 103V100.6H79.3012V100.775H79.3262C79.3262 100.775 79.5262 100.55 79.9012 100.55C80.3262 100.55 80.6262 100.85 80.6262 101.3V103H80.1012V101.4C80.1012 101.125 79.9762 101 79.7512 101C79.4262 101 79.3012 101.25 79.3012 101.25V103H78.7762ZM85.2576 103.05C84.4076 103.05 83.9576 102.405 83.9576 102.405L84.3326 102.05C84.3326 102.05 84.6076 102.55 85.2826 102.55C85.7326 102.55 85.9826 102.3 85.9826 102.025C85.9826 101.2 84.1076 101.65 84.1076 100.4C84.1076 99.875 84.5326 99.45 85.2576 99.45C86.0076 99.45 86.4076 100 86.4076 100L86.0576 100.375C86.0576 100.375 85.8076 99.95 85.2826 99.95C84.8826 99.95 84.6826 100.15 84.6826 100.375C84.6826 101.15 86.5576 100.7 86.5576 102C86.5576 102.575 86.0826 103.05 85.2576 103.05ZM88.7834 103.05C88.3584 103.05 88.0584 102.75 88.0584 102.3V100.6H88.5834V102.2C88.5834 102.475 88.7084 102.6 88.9334 102.6C89.2584 102.6 89.3834 102.35 89.3834 102.35V100.6H89.9084V103H89.3834V102.825H89.3584C89.3584 102.825 89.1584 103.05 88.7834 103.05ZM91.5105 103V100.6H92.0355V100.775H92.0605C92.0605 100.775 92.2355 100.55 92.5355 100.55C92.7605 100.55 92.8855 100.7 92.8855 100.7L92.6105 101.125C92.6105 101.125 92.5355 101 92.3855 101C92.1355 101 92.0355 101.25 92.0355 101.25V103H91.5105ZM94.9619 103.05C94.4869 103.05 94.0369 102.6 94.0369 101.8C94.0369 101 94.4869 100.55 94.9619 100.55C95.2869 100.55 95.4869 100.775 95.4869 100.775H95.5119V100.6H96.0369V102.31C96.0369 102.65 96.1119 103 96.1119 103H95.5869L95.5369 102.8H95.5119C95.5119 102.8 95.3119 103.05 94.9619 103.05ZM95.1119 102.6C95.3619 102.6 95.5119 102.35 95.5119 102.35V101.25C95.5119 101.25 95.3869 101 95.1119 101C94.8619 101 94.5869 101.275 94.5869 101.8C94.5869 102.325 94.8619 102.6 95.1119 102.6ZM98.2891 103C97.9641 103 97.7141 102.75 97.7141 102.4V101.05H97.4141V100.6H97.7141V100.05L98.2391 99.75V100.6H98.5891V101.05H98.2391V102.4C98.2391 102.5 98.2891 102.55 98.3891 102.55H98.6141L98.5391 103H98.2891Z" fill="#3D466E"/>
</svg>
