<svg width="190" height="168" viewBox="0 0 190 168" fill="none" xmlns="http://www.w3.org/2000/svg">
<rect x="18.5513" y="4" width="153.034" height="106.289" rx="18" fill="#3A36DB" stroke="white" stroke-width="8"/>
<path d="M100.012 52.2067L160.482 97.2758C166.271 101.59 163.219 110.789 156 110.789L33.7453 110.789C26.4872 110.789 23.4616 101.507 29.3254 97.2301L91.1102 52.161C93.7667 50.2232 97.3756 50.2418 100.012 52.2067Z" fill="#3A36DB" stroke="white" stroke-width="7"/>
<path d="M89.8149 62.6954L27.0293 17.2006C21.9271 13.5034 24.5423 5.4371 30.8432 5.4371L157.779 5.4371C164.114 5.4371 166.707 13.5746 161.539 17.2391L97.389 62.7339C95.1168 64.3453 92.0705 64.3298 89.8149 62.6954Z" fill="#3A36DB" stroke="white" stroke-width="7"/>
<path d="M48.9831 150.32C43.5431 150.32 40.6631 146.192 40.6631 146.192L43.0631 143.92C43.0631 143.92 44.8231 147.12 49.1431 147.12C52.0231 147.12 53.6231 145.52 53.6231 143.76C53.6231 138.48 41.6231 141.36 41.6231 133.36C41.6231 130 44.3431 127.28 48.9831 127.28C53.7831 127.28 56.3431 130.8 56.3431 130.8L54.1031 133.2C54.1031 133.2 52.5031 130.48 49.1431 130.48C46.5831 130.48 45.3031 131.76 45.3031 133.2C45.3031 138.16 57.3031 135.28 57.3031 143.6C57.3031 147.28 54.2631 150.32 48.9831 150.32ZM61.4544 150V127.6H64.9744V150H61.4544ZM76.9831 150.32C71.5431 150.32 68.6631 146.192 68.6631 146.192L71.0631 143.92C71.0631 143.92 72.8231 147.12 77.1431 147.12C80.0231 147.12 81.6231 145.52 81.6231 143.76C81.6231 138.48 69.6231 141.36 69.6231 133.36C69.6231 130 72.3431 127.28 76.9831 127.28C81.7831 127.28 84.3431 130.8 84.3431 130.8L82.1031 133.2C82.1031 133.2 80.5031 130.48 77.1431 130.48C74.5831 130.48 73.3031 131.76 73.3031 133.2C73.3031 138.16 85.3031 135.28 85.3031 143.6C85.3031 147.28 82.2631 150.32 76.9831 150.32ZM89.4544 150V127.6H92.8144L98.5744 138.32H98.7344L104.494 127.6H107.854V150H104.334V134.64H104.174L99.8544 142.96H97.4544L93.1344 134.64H92.9744V150H89.4544ZM111.218 150L118.898 127.6H121.938L129.618 150H125.938L124.338 145.2H116.498L114.898 150H111.218ZM117.618 142H123.218L120.498 133.84H120.338L117.618 142ZM139.546 150.32C134.106 150.32 131.226 146.192 131.226 146.192L133.626 143.92C133.626 143.92 135.386 147.12 139.706 147.12C142.586 147.12 144.186 145.52 144.186 143.76C144.186 138.48 132.186 141.36 132.186 133.36C132.186 130 134.906 127.28 139.546 127.28C144.346 127.28 146.906 130.8 146.906 130.8L144.666 133.2C144.666 133.2 143.066 130.48 139.706 130.48C137.146 130.48 135.866 131.76 135.866 133.2C135.866 138.16 147.866 135.28 147.866 143.6C147.866 147.28 144.826 150.32 139.546 150.32Z" fill="#4761DF"/>
<path opacity="0.8" d="M13.6714 166.12C11.6314 166.12 10.5514 164.572 10.5514 164.572L11.4514 163.72C11.4514 163.72 12.1114 164.92 13.7314 164.92C14.8114 164.92 15.4114 164.32 15.4114 163.66C15.4114 161.68 10.9114 162.76 10.9114 159.76C10.9114 158.5 11.9314 157.48 13.6714 157.48C15.4714 157.48 16.4314 158.8 16.4314 158.8L15.5914 159.7C15.5914 159.7 14.9914 158.68 13.7314 158.68C12.7714 158.68 12.2914 159.16 12.2914 159.7C12.2914 161.56 16.7914 160.48 16.7914 163.6C16.7914 164.98 15.6514 166.12 13.6714 166.12ZM20.3933 166V160.24H21.6533V166H20.3933ZM20.3933 158.56V157.36H21.6533V158.56H20.3933ZM27.2427 166.12C25.7427 166.12 25.0227 164.86 25.0227 164.86L25.9227 164.2C25.9227 164.2 26.2227 165.04 27.1827 165.04C27.7227 165.04 28.0227 164.74 28.0227 164.38C28.0227 163.36 25.2627 163.84 25.2627 161.8C25.2627 160.9 26.0427 160.12 27.1827 160.12C28.4427 160.12 29.1627 161.2 29.1627 161.2L28.3827 161.92C28.3827 161.92 27.9627 161.2 27.2427 161.2C26.8227 161.2 26.5827 161.44 26.5827 161.74C26.5827 162.76 29.3427 162.28 29.3427 164.32C29.3427 165.28 28.5027 166.12 27.2427 166.12ZM34.4469 166C33.6669 166 33.0669 165.4 33.0669 164.56V161.32H32.3469V160.24H33.0669V158.92L34.3269 158.2V160.24H35.1669V161.32H34.3269V164.56C34.3269 164.8 34.4469 164.92 34.6869 164.92H35.2269L35.0469 166H34.4469ZM41.1069 166.12C39.7269 166.12 38.5269 164.92 38.5269 163.12C38.5269 161.32 39.7269 160.12 41.0469 160.12C42.3669 160.12 43.5669 161.32 43.5669 163.12V163.36H39.8469C39.9069 164.38 40.5669 165.04 41.2269 165.04C42.0669 165.04 42.4269 164.2 42.4269 164.2L43.3269 164.86C43.3269 164.86 42.6069 166.12 41.1069 166.12ZM39.9069 162.4H42.1869C42.0069 161.62 41.5869 161.2 41.0469 161.2C40.5069 161.2 40.0869 161.62 39.9069 162.4ZM47.112 166V160.24H48.372V160.66H48.444C48.444 160.66 48.912 160.12 49.752 160.12C50.772 160.12 51.132 160.84 51.132 160.84H51.228C51.228 160.84 51.732 160.12 52.752 160.12C53.712 160.12 54.372 160.78 54.372 161.8V166H53.112V162.04C53.112 161.44 52.872 161.2 52.392 161.2C51.672 161.2 51.372 161.8 51.372 161.8V166H50.112V162.04C50.112 161.44 49.872 161.2 49.392 161.2C48.672 161.2 48.372 161.8 48.372 161.8V166H47.112ZM63.0317 166V157.6H64.2917L66.4517 161.62H66.5117L68.6717 157.6H69.9317V166H68.6117V160.24H68.5517L66.9317 163.36H66.0317L64.4117 160.24H64.3517V166H63.0317ZM75.9383 166.12C74.7983 166.12 73.7183 165.04 73.7183 163.12C73.7183 161.2 74.7983 160.12 75.9383 160.12C76.7183 160.12 77.1983 160.66 77.1983 160.66H77.2583V160.24H78.5183V164.344C78.5183 165.16 78.6983 166 78.6983 166H77.4383L77.3183 165.52H77.2583C77.2583 165.52 76.7783 166.12 75.9383 166.12ZM76.2983 165.04C76.8983 165.04 77.2583 164.44 77.2583 164.44V161.8C77.2583 161.8 76.9583 161.2 76.2983 161.2C75.6983 161.2 75.0383 161.86 75.0383 163.12C75.0383 164.38 75.6983 165.04 76.2983 165.04ZM82.3034 166V160.24H83.5634V160.66H83.6234C83.6234 160.66 84.1034 160.12 85.0034 160.12C86.0234 160.12 86.7434 160.84 86.7434 161.92V166H85.4834V162.16C85.4834 161.5 85.1834 161.2 84.6434 161.2C83.8634 161.2 83.5634 161.8 83.5634 161.8V166H82.3034ZM92.5086 166.12C91.3686 166.12 90.2886 165.04 90.2886 163.12C90.2886 161.2 91.3686 160.12 92.5086 160.12C93.2886 160.12 93.7686 160.66 93.7686 160.66H93.8286V160.24H95.0886V164.344C95.0886 165.16 95.2686 166 95.2686 166H94.0086L93.8886 165.52H93.8286C93.8286 165.52 93.3486 166.12 92.5086 166.12ZM92.8686 165.04C93.4686 165.04 93.8286 164.44 93.8286 164.44V161.8C93.8286 161.8 93.5286 161.2 92.8686 161.2C92.2686 161.2 91.6086 161.86 91.6086 163.12C91.6086 164.38 92.2686 165.04 92.8686 165.04ZM98.3338 167.56L98.1538 166.48H98.5138C98.7538 166.48 98.8738 166.36 98.8738 166.12V160.24H100.134V166.12C100.134 166.96 99.5338 167.56 98.7538 167.56H98.3338ZM98.8738 158.56V157.36H100.134V158.56H98.8738ZM106.263 166.12C104.883 166.12 103.683 164.92 103.683 163.12C103.683 161.32 104.883 160.12 106.203 160.12C107.523 160.12 108.723 161.32 108.723 163.12V163.36H105.003C105.063 164.38 105.723 165.04 106.383 165.04C107.223 165.04 107.583 164.2 107.583 164.2L108.483 164.86C108.483 164.86 107.763 166.12 106.263 166.12ZM105.063 162.4H107.343C107.163 161.62 106.743 161.2 106.203 161.2C105.663 161.2 105.243 161.62 105.063 162.4ZM112.268 166V160.24H113.528V160.66H113.6C113.6 160.66 114.068 160.12 114.908 160.12C115.928 160.12 116.288 160.84 116.288 160.84H116.384C116.384 160.84 116.888 160.12 117.908 160.12C118.868 160.12 119.528 160.78 119.528 161.8V166H118.268V162.04C118.268 161.44 118.028 161.2 117.548 161.2C116.828 161.2 116.528 161.8 116.528 161.8V166H115.268V162.04C115.268 161.44 115.028 161.2 114.548 161.2C113.828 161.2 113.528 161.8 113.528 161.8V166H112.268ZM125.658 166.12C124.278 166.12 123.078 164.92 123.078 163.12C123.078 161.32 124.278 160.12 125.598 160.12C126.918 160.12 128.118 161.32 128.118 163.12V163.36H124.398C124.458 164.38 125.118 165.04 125.778 165.04C126.618 165.04 126.978 164.2 126.978 164.2L127.878 164.86C127.878 164.86 127.158 166.12 125.658 166.12ZM124.458 162.4H126.738C126.558 161.62 126.138 161.2 125.598 161.2C125.058 161.2 124.638 161.62 124.458 162.4ZM131.663 166V160.24H132.923V160.66H132.983C132.983 160.66 133.463 160.12 134.363 160.12C135.383 160.12 136.103 160.84 136.103 161.92V166H134.843V162.16C134.843 161.5 134.543 161.2 134.003 161.2C133.223 161.2 132.923 161.8 132.923 161.8V166H131.663ZM147.218 166.12C145.178 166.12 144.098 164.572 144.098 164.572L144.998 163.72C144.998 163.72 145.658 164.92 147.278 164.92C148.358 164.92 148.958 164.32 148.958 163.66C148.958 161.68 144.458 162.76 144.458 159.76C144.458 158.5 145.478 157.48 147.218 157.48C149.018 157.48 149.978 158.8 149.978 158.8L149.138 159.7C149.138 159.7 148.538 158.68 147.278 158.68C146.318 158.68 145.838 159.16 145.838 159.7C145.838 161.56 150.338 160.48 150.338 163.6C150.338 164.98 149.198 166.12 147.218 166.12ZM155.68 166.12C154.66 166.12 153.94 165.4 153.94 164.32V160.24H155.2V164.08C155.2 164.74 155.5 165.04 156.04 165.04C156.82 165.04 157.12 164.44 157.12 164.44V160.24H158.38V166H157.12V165.58H157.06C157.06 165.58 156.58 166.12 155.68 166.12ZM162.225 166V160.24H163.485V160.66H163.545C163.545 160.66 163.965 160.12 164.685 160.12C165.225 160.12 165.525 160.48 165.525 160.48L164.865 161.5C164.865 161.5 164.685 161.2 164.325 161.2C163.725 161.2 163.485 161.8 163.485 161.8V166H162.225ZM170.509 166.12C169.369 166.12 168.289 165.04 168.289 163.12C168.289 161.2 169.369 160.12 170.509 160.12C171.289 160.12 171.769 160.66 171.769 160.66H171.829V160.24H173.089V164.344C173.089 165.16 173.269 166 173.269 166H172.009L171.889 165.52H171.829C171.829 165.52 171.349 166.12 170.509 166.12ZM170.869 165.04C171.469 165.04 171.829 164.44 171.829 164.44V161.8C171.829 161.8 171.529 161.2 170.869 161.2C170.269 161.2 169.609 161.86 169.609 163.12C169.609 164.38 170.269 165.04 170.869 165.04ZM178.494 166C177.714 166 177.114 165.4 177.114 164.56V161.32H176.394V160.24H177.114V158.92L178.374 158.2V160.24H179.214V161.32H178.374V164.56C178.374 164.8 178.494 164.92 178.734 164.92H179.274L179.094 166H178.494Z" fill="#3D466E"/>
</svg>
