<svg width="24" height="24" viewBox="0 0 24 24" fill="none" xmlns="http://www.w3.org/2000/svg">
<g opacity="0.5">
<path d="M12 13C11.7167 13 11.479 12.904 11.287 12.712C11.095 12.52 10.9993 12.2827 11 12V4C11 3.71667 11.096 3.479 11.288 3.287C11.48 3.095 11.7173 2.99934 12 3C12.2833 3 12.521 3.096 12.713 3.288C12.905 3.48 13.0007 3.71734 13 4V12C13 12.2833 12.904 12.521 12.712 12.713C12.52 12.905 12.2827 13.0007 12 13ZM12 21C10.75 21 9.579 20.7623 8.487 20.287C7.395 19.8117 6.445 19.1703 5.637 18.363C4.829 17.5543 4.18767 16.6043 3.713 15.513C3.23833 14.4217 3.00067 13.2507 3 12C3 10.85 3.20833 9.75 3.625 8.7C4.04167 7.65 4.64167 6.7 5.425 5.85C5.60833 5.65 5.84167 5.55 6.125 5.55C6.40833 5.55 6.65 5.65 6.85 5.85C7.03333 6.03334 7.11667 6.26267 7.1 6.538C7.08333 6.81334 6.98333 7.059 6.8 7.275C6.21667 7.925 5.771 8.65434 5.463 9.463C5.155 10.2717 5.00067 11.1173 5 12C5 13.95 5.67933 15.6043 7.038 16.963C8.39667 18.3217 10.0507 19.0007 12 19C13.95 19 15.6043 18.3207 16.963 16.962C18.3217 15.6033 19.0007 13.9493 19 12C19 11.1167 18.8417 10.2623 18.525 9.437C18.2083 8.61167 17.7583 7.87434 17.175 7.225C16.9917 7.025 16.8957 6.79167 16.887 6.525C16.8783 6.25834 16.966 6.03334 17.15 5.85C17.35 5.65 17.5917 5.55 17.875 5.55C18.1583 5.55 18.3917 5.65 18.575 5.85C19.3583 6.7 19.9583 7.65 20.375 8.7C20.7917 9.75 21 10.85 21 12C21 13.25 20.7623 14.421 20.287 15.513C19.8117 16.605 19.1703 17.555 18.363 18.363C17.5543 19.171 16.6043 19.8127 15.513 20.288C14.4217 20.7633 13.2507 21.0007 12 21Z" fill="#99B2C6"/>
</g>
</svg>
