<svg width="24" height="24" viewBox="0 0 24 24" fill="none" xmlns="http://www.w3.org/2000/svg">
<path fill-rule="evenodd" clip-rule="evenodd" d="M19 2.75C18.7045 2.75 18.4119 2.8082 18.139 2.92127C17.866 3.03434 17.6179 3.20008 17.409 3.40901C17.2001 3.61794 17.0343 3.86598 16.9213 4.13896C16.8082 4.41194 16.75 4.70453 16.75 5C16.75 5.29547 16.8082 5.58806 16.9213 5.86104C17.0343 6.13402 17.2001 6.38206 17.409 6.59099C17.6179 6.79992 17.866 6.96566 18.139 7.07873C18.4119 7.1918 18.7045 7.25 19 7.25C19.5967 7.25 20.169 7.01295 20.591 6.59099C21.0129 6.16903 21.25 5.59674 21.25 5C21.25 4.40326 21.0129 3.83097 20.591 3.40901C20.169 2.98705 19.5967 2.75 19 2.75ZM15.25 5C15.25 4.00544 15.6451 3.05161 16.3483 2.34835C17.0516 1.64509 18.0054 1.25 19 1.25C19.9946 1.25 20.9484 1.64509 21.6517 2.34835C22.3549 3.05161 22.75 4.00544 22.75 5C22.75 5.99456 22.3549 6.94839 21.6517 7.65165C20.9484 8.35491 19.9946 8.75 19 8.75C18.0054 8.75 17.0516 8.35491 16.3483 7.65165C15.6451 6.94839 15.25 5.99456 15.25 5ZM9.944 3.25H13C13.1989 3.25 13.3897 3.32902 13.5303 3.46967C13.671 3.61032 13.75 3.80109 13.75 4C13.75 4.19891 13.671 4.38968 13.5303 4.53033C13.3897 4.67098 13.1989 4.75 13 4.75H10C8.093 4.75 6.739 4.752 5.71 4.89C4.705 5.025 4.125 5.279 3.702 5.702C3.279 6.125 3.025 6.705 2.89 7.711C2.752 8.739 2.75 10.093 2.75 12C2.75 13.907 2.752 15.261 2.89 16.29C3.025 17.295 3.279 17.875 3.702 18.298C4.125 18.721 4.705 18.975 5.711 19.11C6.739 19.248 8.093 19.25 10 19.25H14C15.907 19.25 17.262 19.248 18.29 19.11C19.295 18.975 19.875 18.721 20.298 18.298C20.721 17.875 20.975 17.295 21.11 16.289C21.248 15.261 21.25 13.907 21.25 12C21.25 11.627 21.253 11.355 21.255 11.12C21.259 10.741 21.262 10.462 21.25 10.02C21.2447 9.82109 21.3186 9.62822 21.4555 9.48381C21.5924 9.33941 21.7811 9.2553 21.98 9.25C22.1789 9.2447 22.3718 9.31863 22.5162 9.45553C22.6606 9.59243 22.7447 9.78109 22.75 9.98C22.762 10.447 22.759 10.765 22.755 11.167C22.753 11.401 22.75 11.664 22.75 12V12.056C22.75 13.894 22.75 15.35 22.597 16.489C22.439 17.661 22.107 18.61 21.359 19.359C20.61 20.107 19.661 20.439 18.489 20.597C17.349 20.75 15.894 20.75 14.056 20.75H9.944C8.106 20.75 6.65 20.75 5.511 20.597C4.339 20.439 3.39 20.107 2.641 19.359C1.893 18.61 1.561 17.661 1.403 16.489C1.25 15.349 1.25 13.894 1.25 12.056V11.944C1.25 10.106 1.25 8.65 1.403 7.511C1.561 6.339 1.893 5.39 2.641 4.641C3.39 3.893 4.339 3.561 5.511 3.403C6.651 3.25 8.106 3.25 9.944 3.25ZM5.424 7.52C5.55134 7.36729 5.73411 7.27139 5.93213 7.25338C6.13015 7.23538 6.32721 7.29675 6.48 7.424L8.64 9.223C9.573 10 10.22 10.538 10.768 10.89C11.297 11.23 11.656 11.345 12.001 11.345C12.346 11.345 12.705 11.231 13.234 10.89C13.781 10.538 14.429 10 15.362 9.223C15.4373 9.15715 15.5249 9.10702 15.6199 9.07556C15.7148 9.0441 15.8151 9.03194 15.9148 9.0398C16.0145 9.04765 16.1116 9.07537 16.2004 9.12132C16.2892 9.16726 16.368 9.23051 16.432 9.30734C16.496 9.38417 16.544 9.47302 16.5732 9.56868C16.6024 9.66433 16.6121 9.76486 16.6019 9.86434C16.5916 9.96382 16.5616 10.0602 16.5135 10.1479C16.4655 10.2356 16.4003 10.3128 16.322 10.375L16.285 10.407C15.398 11.145 14.68 11.744 14.045 12.152C13.385 12.577 12.742 12.845 12.001 12.845C11.26 12.845 10.617 12.576 9.956 12.152C9.322 11.744 8.604 11.145 7.717 10.407L5.52 8.577C5.44424 8.51394 5.38165 8.43656 5.33582 8.34929C5.28998 8.26202 5.2618 8.16657 5.25289 8.0684C5.24397 7.97023 5.25449 7.87127 5.28385 7.77717C5.31322 7.68307 5.36084 7.59568 5.424 7.52Z" fill="#3A36DB"/>
</svg>
